HIERARCHY
ROOT Hips
{
	OFFSET 0.000000 0.000000 0.000000
	CHANNELS 6 Xposition Yposition Zposition Zrotation Yrotation Xrotation 
	JOINT LHipJoint
	{
		OFFSET 0.000000 0.000000 0.000000
		CHANNELS 3 Zrotation Yrotation Xrotation
		JOINT LeftUpLeg
		{
			OFFSET 1.363060 -1.794630 0.839290
			CHANNELS 3 Zrotation Yrotation Xrotation
			JOINT LeftLeg
			{
				OFFSET 2.448110 -6.726130 0.000000
				CHANNELS 3 Zrotation Yrotation Xrotation
				JOINT LeftFoot
				{
					OFFSET 2.562200 -7.039590 0.000000
					CHANNELS 3 Zrotation Yrotation Xrotation
					JOINT LeftToeBase
					{
						OFFSET 0.157640 -0.433110 2.322550
						CHANNELS 3 Zrotation Yrotation Xrotation
						End Site
						{
							OFFSET 0.000000 0.000000 0.000000
						}
					}
				}
			}
		}
	}
	JOINT RHipJoint
	{
		OFFSET 0.000000 0.000000 0.000000
		CHANNELS 3 Zrotation Yrotation Xrotation
		JOINT RightUpLeg
		{
			OFFSET -1.305520 -1.794630 0.839290
			CHANNELS 3 Zrotation Yrotation Xrotation
			JOINT RightLeg
			{
				OFFSET -2.542530 -6.985550 0.000000
				CHANNELS 3 Zrotation Yrotation Xrotation
				JOINT RightFoot
				{
					OFFSET -2.568260 -7.056230 0.000000
					CHANNELS 3 Zrotation Yrotation Xrotation
					JOINT RightToeBase
					{
						OFFSET -0.164730 -0.452590 2.363150
						CHANNELS 3 Zrotation Yrotation Xrotation
						End Site
						{
							OFFSET 0.000000 0.000000 0.000000
						}
					}
				}
			}
		}
	}
	JOINT LowerBack
	{
		OFFSET 0.000000 0.000000 0.000000
		CHANNELS 3 Zrotation Yrotation Xrotation
		JOINT Spine
		{
			OFFSET 0.028270 2.035590 -0.193380
			CHANNELS 3 Zrotation Yrotation Xrotation
			JOINT Spine1
			{
				OFFSET 0.056720 2.048850 -0.042750
				CHANNELS 3 Zrotation Yrotation Xrotation
				JOINT Neck
				{
					OFFSET 0.000000 0.000000 0.000000
					CHANNELS 3 Zrotation Yrotation Xrotation
					JOINT Neck1
					{
						OFFSET -0.054170 1.746240 0.172020
						CHANNELS 3 Zrotation Yrotation Xrotation
						JOINT Head
						{
							OFFSET 0.104070 1.761360 -0.123970
							CHANNELS 3 Zrotation Yrotation Xrotation
							End Site
							{
								OFFSET 0.000000 0.000000 0.000000
							}
						}
					}
				}
				JOINT LeftShoulder
				{
					OFFSET 0.000000 0.000000 0.000000
					CHANNELS 3 Zrotation Yrotation Xrotation
					JOINT LeftArm
					{
						OFFSET 3.362410 1.200890 -0.311210
						CHANNELS 3 Zrotation Yrotation Xrotation
						JOINT LeftForeArm
						{
							OFFSET 4.983000 -0.000000 -0.000000
							CHANNELS 3 Zrotation Yrotation Xrotation
							JOINT LeftHand
							{
								OFFSET 3.483560 -0.000000 -0.000000
								CHANNELS 3 Zrotation Yrotation Xrotation
								JOINT LeftFingerBase
								{
									OFFSET 0.000000 0.000000 0.000000
									CHANNELS 3 Zrotation Yrotation Xrotation
									JOINT LeftHandIndex1
									{
										OFFSET 0.715260 -0.000000 -0.000000
										CHANNELS 3 Zrotation Yrotation Xrotation
										End Site
										{
											OFFSET 0.000000 0.000000 0.000000
										}
									}
								}
								JOINT LThumb
								{
									OFFSET 0.000000 0.000000 0.000000
									CHANNELS 3 Zrotation Yrotation Xrotation
									End Site
									{
										OFFSET 0.000000 0.000000 0.000000
									}
								}
							}
						}
					}
				}
				JOINT RightShoulder
				{
					OFFSET 0.000000 0.000000 0.000000
					CHANNELS 3 Zrotation Yrotation Xrotation
					JOINT RightArm
					{
						OFFSET -3.136600 1.374050 -0.404650
						CHANNELS 3 Zrotation Yrotation Xrotation
						JOINT RightForeArm
						{
							OFFSET -5.241900 -0.000000 -0.000000
							CHANNELS 3 Zrotation Yrotation Xrotation
							JOINT RightHand
							{
								OFFSET -3.444170 -0.000000 -0.000000
								CHANNELS 3 Zrotation Yrotation Xrotation
								JOINT RightFingerBase
								{
									OFFSET 0.000000 0.000000 0.000000
									CHANNELS 3 Zrotation Yrotation Xrotation
									JOINT RightHandIndex1
									{
										OFFSET -0.622530 -0.000000 -0.000000
										CHANNELS 3 Zrotation Yrotation Xrotation
										End Site
										{
											OFFSET 0.000000 0.000000 0.000000
										}
									}
								}
								JOINT RThumb
								{
									OFFSET 0.000000 0.000000 0.000000
									CHANNELS 3 Zrotation Yrotation Xrotation
									End Site
									{
										OFFSET 0.000000 0.000000 0.000000
									}
								}
							}
						}
					}
				}
			}
		}
	}
}
MOTION
Frames: 11
Frame Time: 0.008333
-10.632670 17.069631 -1.577249 8.754108 83.295077 9.184472 -10.309323 1.817355 3.145776 -13.809184 2.395964 -22.675998 -2.107004 0.274860 18.447396 1.156397 6.797675 -4.454028 0.456400 0.000001 -15.717400 10.429427 -3.972899 -1.697965 -1.070811 -17.350218 2.672956 -0.501207 -2.937420 39.372218 -0.840382 0.921216 20.610623 0.771400 0.000000 -85.393500 -4.133759 0.255199 -3.793774 -1.403292 0.395710 -3.071408 -5.390801 0.318085 2.645597 10.053916 -12.328527 -9.998665 -1.894775 -0.120949 -0.600716 0.000000 0.000000 0.000000 -3.965451 25.887596 1.211725 -75.234341 20.756787 -8.002385 -4.265340 -8.769116 -0.013635 -1.321213 5.982884 -0.064937 -0.104642 -0.098398 -0.000000 0.000000 0.000000 0.000000 0.000000 0.000000 0.000000 11.572072 -6.446487 -0.565406 55.924269 13.992175 10.557422 2.237187 43.657872 0.015279 3.394434 6.544337 0.197082 0.041850 -0.152322 -0.000000 0.000000 0.000000 0.000000 0.000000 0.000000 0.000000 
-10.458622 17.062288 -1.573943 11.668485 83.440068 11.952558 -10.310922 1.841647 3.050796 -14.193454 2.641488 -22.345490 -2.112497 0.327269 19.408121 1.147568 6.702377 -4.851230 0.385800 0.000001 -15.259499 10.578185 -3.911525 -1.753421 -1.693924 -17.823696 1.431229 -0.666277 -3.026309 41.922968 -1.109307 -0.583407 21.823674 0.181000 0.000001 -82.291000 -4.490812 0.098193 -3.684988 -1.470707 0.269342 -3.060012 -5.413072 0.191631 2.610549 10.119686 -12.383095 -10.024021 -1.925771 -0.122994 -0.608786 0.000000 0.000000 0.000000 -3.778944 25.593067 1.219233 -75.048684 20.208026 -7.783220 -4.266667 -8.868647 -0.013085 -1.204854 5.805116 -0.056921 -0.105333 -0.095180 -0.000000 0.000000 0.000000 0.000000 0.000000 0.000000 0.000000 11.756971 -6.543325 -0.576462 56.592886 13.481315 10.081570 2.272142 43.255647 0.015304 3.278639 6.586896 0.191298 0.044462 -0.151758 -0.000000 0.000000 0.000000 0.000000 0.000000 0.000000 0.000000 
-10.287318 17.054387 -1.570974 14.259131 83.568748 14.419260 -10.299150 1.870213 2.945135 -14.550649 2.967718 -22.016366 -2.123301 0.372288 20.305141 1.133486 6.553150 -5.301194 0.306700 0.000000 -14.947800 10.718490 -3.836965 -1.800816 -2.173234 -18.200406 0.176094 -0.800865 -3.111765 44.355044 -1.378781 -2.461205 22.405493 -0.647500 0.000000 -78.403500 -4.785193 -0.054376 -3.567478 -1.526029 0.142731 -3.046033 -5.433880 0.065474 2.578790 10.170298 -12.443003 -10.061622 -1.956333 -0.124830 -0.620165 0.000000 0.000000 0.000000 -3.595805 25.297941 1.228691 -74.850279 19.550724 -7.586886 -4.265039 -8.949171 -0.012408 -1.054417 5.592175 -0.047302 -0.106036 -0.091338 -0.000000 0.000000 0.000000 0.000000 0.000000 0.000000 0.000000 11.923379 -6.644073 -0.583679 57.288907 12.962398 9.578467 2.308863 42.808361 0.015311 3.135750 6.639514 0.184115 0.047381 -0.151236 -0.000000 0.000000 0.000000 0.000000 0.000000 0.000000 0.000000 
-10.118596 17.046401 -1.568315 16.553585 83.663278 16.611561 -10.274633 1.903095 2.835311 -14.882231 3.331826 -21.656938 -2.138918 0.407984 21.096717 1.118569 6.381465 -5.792711 0.223700 0.000000 -14.780200 10.849685 -3.751570 -1.841327 -2.527187 -18.473061 -1.092309 -0.911370 -3.199613 46.642689 -1.638927 -4.596431 22.295945 -1.620100 0.000000 -74.022800 -5.025490 -0.197189 -3.446589 -1.571789 0.021632 -3.032119 -5.456073 -0.054834 2.544217 10.207674 -12.494253 -10.103411 -1.988469 -0.126747 -0.632638 0.000000 0.000000 0.000000 -3.427417 24.985917 1.237964 -74.630474 18.831532 -7.344529 -4.259083 -9.074315 -0.011661 -0.879042 5.365598 -0.036980 -0.106601 -0.087234 -0.000000 0.000000 0.000000 0.000000 0.000000 0.000000 0.000000 12.076669 -6.731424 -0.585504 58.008545 12.412456 9.027750 2.347880 42.331037 0.015317 2.984361 6.695430 0.176431 0.050401 -0.150718 -0.000000 0.000000 0.000000 0.000000 0.000000 0.000000 0.000000 
-9.952053 17.038824 -1.566502 18.397806 83.712496 18.377296 -10.243812 1.942249 2.728700 -15.169211 3.705831 -21.260055 -2.158319 0.435521 21.769216 1.105126 6.200449 -6.323538 0.138500 0.000001 -14.752900 10.964721 -3.657065 -1.873734 -2.745409 -18.634439 -2.367513 -1.003889 -3.289822 48.747588 -1.880917 -6.842466 21.478742 -2.607999 0.000000 -69.394900 -5.200111 -0.325703 -3.330769 -1.605841 -0.090426 -3.019182 -5.480008 -0.165807 2.510110 10.232304 -12.541159 -10.148563 -2.022319 -0.128770 -0.645912 0.000000 0.000000 0.000000 -3.282554 24.673541 1.244291 -74.385270 18.046223 -7.073207 -4.249432 -9.233081 -0.010853 -0.686941 5.119276 -0.026557 -0.107036 -0.082875 -0.000000 0.000000 0.000000 0.000000 0.000000 0.000000 0.000000 12.221218 -6.809993 -0.582562 58.737542 11.846047 8.447169 2.389757 41.815260 0.015331 2.828642 6.757936 0.168447 0.053491 -0.150110 -0.000000 0.000000 0.000000 0.000000 0.000000 0.000000 0.000000 
-9.787319 17.032232 -1.565745 19.766743 83.709858 19.691894 -10.211514 1.986658 2.630733 -15.408616 4.060402 -20.814721 -2.180611 0.454577 22.305225 1.096335 6.033612 -6.884109 0.053300 0.000000 -14.857399 11.059619 -3.555810 -1.895947 -2.834841 -18.679428 -3.648099 -1.081000 -3.380866 50.639122 -2.098320 -9.040436 19.988375 -3.472800 0.000000 -64.702800 -5.311422 -0.438137 -3.227926 -1.628845 -0.191623 -3.009191 -5.506795 -0.265796 2.474837 10.244183 -12.575452 -10.191256 -2.058993 -0.131082 -0.658349 0.000000 0.000000 0.000000 -3.169425 24.359957 1.245974 -74.108320 17.217933 -6.745324 -4.235942 -9.450932 -0.010020 -0.486964 4.861229 -0.016531 -0.107298 -0.078441 -0.000000 0.000000 0.000000 0.000000 0.000000 0.000000 0.000000 12.359613 -6.871369 -0.575536 59.471557 11.253757 7.827232 2.434989 41.262073 0.015361 2.679081 6.825501 0.160762 0.056542 -0.149343 -0.000000 0.000000 0.000000 0.000000 0.000000 0.000000 0.000000 
-9.623930 17.027149 -1.566371 20.607226 83.657545 20.504312 -10.184234 2.035460 2.546145 -15.591768 4.377295 -20.324790 -2.204433 0.465981 22.705800 1.093880 5.893708 -7.467717 -0.031100 -0.000000 -15.078300 11.129054 -3.450366 -1.905414 -2.794476 -18.611413 -4.932264 -1.141695 -3.468165 52.288210 -2.285014 -11.040160 17.896824 -4.095400 -0.000000 -60.018400 -5.356148 -0.534826 -3.145922 -1.639794 -0.282582 -3.002154 -5.535491 -0.355432 2.444450 10.245328 -12.611487 -10.233044 -2.097827 -0.133605 -0.670311 0.000000 0.000000 0.000000 -3.090616 24.064767 1.240532 -73.798412 16.331069 -6.403240 -4.220434 -9.697061 -0.009156 -0.287104 4.578639 -0.007403 -0.107476 -0.073847 -0.000000 0.000000 0.000000 0.000000 0.000000 0.000000 0.000000 12.498163 -6.933703 -0.566223 60.197220 10.662449 7.195113 2.484114 40.654932 0.015404 2.531555 6.900738 0.153176 0.059628 -0.148305 -0.000000 0.000000 0.000000 0.000000 0.000000 0.000000 0.000000 
-9.461632 17.024063 -1.568342 20.995563 83.558436 20.889725 -10.162973 2.086325 2.476650 -15.726215 4.639833 -19.785320 -2.228589 0.469091 22.964833 1.100073 5.801608 -8.059606 -0.113700 -0.000001 -15.397700 11.173672 -3.342842 -1.899830 -2.642402 -18.435492 -6.217527 -1.181391 -3.547703 53.674341 -2.435970 -12.718873 15.306526 -4.398200 -0.000000 -55.359600 -5.343143 -0.617889 -3.089041 -1.640285 -0.364784 -2.998618 -5.566062 -0.436253 2.419679 10.237239 -12.651399 -10.271159 -2.138791 -0.136381 -0.681027 0.000000 0.000000 0.000000 -3.046819 23.789356 1.226813 -73.451454 15.397925 -6.032783 -4.203519 -9.983284 -0.008286 -0.093481 4.277394 0.000426 -0.107595 -0.069207 -0.000000 0.000000 0.000000 0.000000 0.000000 0.000000 0.000000 12.639821 -7.001723 -0.556089 60.913257 10.075589 6.549755 2.537431 39.986294 0.015462 2.384977 6.983392 0.145688 0.062768 -0.146952 -0.000000 0.000000 0.000000 0.000000 0.000000 0.000000 0.000000 
-9.300212 17.023405 -1.571553 21.003808 83.420306 20.917573 -10.148173 2.137789 2.422567 -15.816926 4.841683 -19.196884 -2.251687 0.464093 23.086192 1.115905 5.769020 -8.645381 -0.194100 0.000000 -15.793000 11.194561 -3.234529 -1.877725 -2.394986 -18.163967 -7.497254 -1.193863 -3.614719 54.780091 -2.546665 -13.991340 12.342291 -4.357800 0.000000 -50.723500 -5.276866 -0.690175 -3.059060 -1.630976 -0.440740 -2.999271 -5.598430 -0.510830 2.398730 10.218302 -12.686043 -10.300172 -2.182144 -0.139509 -0.689001 0.000000 0.000000 0.000000 -3.036881 23.527977 1.205359 -73.066320 14.437452 -5.626993 -4.185663 -10.323386 -0.007431 0.090165 3.964506 0.006957 -0.107695 -0.064607 -0.000000 0.000000 0.000000 0.000000 0.000000 0.000000 0.000000 12.780836 -7.068198 -0.546832 61.625364 9.478025 5.867237 2.594849 39.257942 0.015531 2.244477 7.068098 0.138298 0.065884 -0.145246 -0.000000 0.000000 0.000000 0.000000 0.000000 0.000000 0.000000 
-9.139544 17.025358 -1.575816 20.732262 83.253688 20.683205 -10.138470 2.188609 2.382076 -15.871949 4.983759 -18.559105 -2.272532 0.451363 23.076742 1.141446 5.801837 -9.209453 -0.272500 -0.000000 -16.238900 11.194623 -3.125843 -1.839483 -2.074142 -17.815812 -8.761524 -1.172610 -3.665481 55.594492 -2.613416 -14.810172 9.140028 -4.003400 0.000000 -46.079899 -5.165582 -0.755553 -3.053460 -1.613063 -0.513585 -3.002664 -5.631292 -0.582182 2.384827 10.190386 -12.727692 -10.321575 -2.226479 -0.142843 -0.694674 0.000000 0.000000 0.000000 -3.054337 23.286526 1.175962 -72.644956 13.444869 -5.200572 -4.168016 -10.707728 -0.006600 0.262344 3.641796 0.011989 -0.107868 -0.060026 -0.000000 0.000000 0.000000 0.000000 0.000000 0.000000 0.000000 12.922298 -7.149584 -0.540011 62.333245 8.886710 5.155977 2.656163 38.457438 0.015603 2.099062 7.155369 0.130505 0.069085 -0.143177 -0.000000 0.000000 0.000000 0.000000 0.000000 0.000000 0.000000 
-8.979629 17.030023 -1.580890 20.268934 83.071604 20.268999 -10.132773 2.238275 2.352466 -15.896818 5.074808 -17.874288 -2.290182 0.431837 22.948299 1.175239 5.895493 -9.736298 -0.348400 0.000000 -16.709400 11.176542 -3.016592 -1.786624 -1.698833 -17.414880 -9.999069 -1.112973 -3.696915 56.111367 -2.634896 -15.169929 5.848287 -3.410800 -0.000001 -41.467900 -5.015408 -0.817776 -3.067748 -1.587404 -0.586492 -3.007670 -5.663745 -0.653388 2.378509 10.153992 -12.779050 -10.334939 -2.270956 -0.146308 -0.697970 0.000000 0.000000 0.000000 -3.091218 23.062748 1.139761 -72.190875 12.423503 -4.771267 -4.151530 -11.132662 -0.005801 0.422971 3.313492 0.015623 -0.108199 -0.055437 -0.000000 0.000000 0.000000 0.000000 0.000000 0.000000 0.000000 13.062201 -7.251346 -0.536673 63.039889 8.300399 4.404383 2.720781 37.585240 0.015664 1.945633 7.238614 0.121810 0.072374 -0.140735 -0.000000 0.000000 0.000000 0.000000 0.000000 0.000000 0.000000 
